<svg id="Layer_1" data-name="Layer 1" xmlns="http://www.w3.org/2000/svg" xmlns:xlink="http://www.w3.org/1999/xlink" viewBox="0 0 1920 1080"><defs><style>.cls-1{fill:#fff;}.cls-2{fill:none;}.cls-3{clip-path:url(#clip-path);}.cls-4{mask:url(#mask);}.cls-5,.cls-6,.cls-7{fill-rule:evenodd;opacity:0.45;isolation:isolate;}.cls-5{fill:url(#linear-gradient);}.cls-6{fill:url(#linear-gradient-2);}.cls-7{fill:url(#linear-gradient-3);}</style><clipPath id="clip-path"><rect class="cls-2" y="-2.41" width="1920" height="950.56"/></clipPath><mask id="mask" x="-599.98" y="-1066.2" width="3115.11" height="2151.03" maskUnits="userSpaceOnUse"><g id="mask0"><rect class="cls-1" x="-6.34" y="0.01" width="1928.57" height="1084.82"/></g></mask><linearGradient id="linear-gradient" x1="418.07" y1="2001.69" x2="455.65" y2="4231.12" gradientTransform="matrix(1, 0, 0, -1, 539.06, 2402.36)" gradientUnits="userSpaceOnUse"><stop offset="0" stop-color="#048ecb" stop-opacity="0.07"/><stop offset="1" stop-color="#c4c4c4" stop-opacity="0"/></linearGradient><linearGradient id="linear-gradient-2" x1="461.77" y1="1671.65" x2="-106.82" y2="3293.63" gradientTransform="matrix(1, 0, 0, -1, 539.06, 2402.36)" gradientUnits="userSpaceOnUse"><stop offset="0" stop-color="#57bc90" stop-opacity="0.19"/><stop offset="1" stop-color="#c4c4c4" stop-opacity="0"/></linearGradient><linearGradient id="linear-gradient-3" x1="9.9" y1="1547.01" x2="808.19" y2="2853.65" gradientTransform="matrix(1, 0, 0, -1, 539.06, 2402.36)" gradientUnits="userSpaceOnUse"><stop offset="0.21" stop-color="#039bd2" stop-opacity="0.16"/><stop offset="1" stop-color="#c4c4c4" stop-opacity="0"/></linearGradient></defs><g class="cls-3"><g class="cls-4"><path class="cls-5" d="M-241.34-69.46q9.57,26.28,20.1,52.2-10.56-25.86-20.17-52.07L-600,565.16l.82.46C-269,502.19,84,546.7,403.22,714.78q19.81,12,40.12,23.47c728.05,411.44,1649.73,161.76,2071.8-556.4L318.26-1059.67Z"/><path class="cls-6" d="M-222.06-37.76q8.73,24,18.34,47.64-9.63-23.59-18.41-47.52L-549.72,542l.75.42c301.64-58,624.17-17.29,915.79,136.27q18.1,11,36.66,21.44C1068.63,1076.07,1910.7,848,2296.31,191.83L289.2-942.44Z"/><path class="cls-7" d="M-214.5-112.74q5.94,15.69,12.25,31.24-6.33-15.51-12.3-31.16L-542,466.85l4.93,2.79c307.21-53.58,633.73-9.31,929.7,146.54q18.87,11.42,38.21,22.35c693.2,391.74,1570.77,154,1972.63-529.77l-2079.1-1175Z"/></g></g></svg>