<svg id="Layer_1" data-name="Layer 1" xmlns="http://www.w3.org/2000/svg" xmlns:xlink="http://www.w3.org/1999/xlink" viewBox="0 0 1920 1080"><defs><style>.cls-1{fill:#fff;}.cls-2{fill:none;}.cls-3{clip-path:url(#clip-path);}.cls-4{mask:url(#mask);}.cls-5,.cls-6,.cls-7{fill-rule:evenodd;opacity:0.45;isolation:isolate;}.cls-5{fill:url(#linear-gradient);}.cls-6{fill:url(#linear-gradient-2);}.cls-7{fill:url(#linear-gradient-3);}</style><clipPath id="clip-path"><rect class="cls-2" width="1920" height="1080"/></clipPath><mask id="mask" x="-597.31" y="-1059.06" width="3101.27" height="2141.47" maskUnits="userSpaceOnUse"><g id="mask0"><rect class="cls-1" x="-6.31" y="2.41" width="1920" height="1080"/></g></mask><linearGradient id="linear-gradient" x1="413.81" y1="2001.07" x2="451.23" y2="4220.6" gradientTransform="matrix(1, 0, 0, -1, 539.06, 2402.36)" gradientUnits="userSpaceOnUse"><stop offset="0" stop-color="#048ecb" stop-opacity="0.07"/><stop offset="1" stop-color="#c4c4c4" stop-opacity="0"/></linearGradient><linearGradient id="linear-gradient-2" x1="457.32" y1="1672.49" x2="-108.74" y2="3287.27" gradientTransform="matrix(1, 0, 0, -1, 539.06, 2402.36)" gradientUnits="userSpaceOnUse"><stop offset="0" stop-color="#57bc90" stop-opacity="0.19"/><stop offset="1" stop-color="#c4c4c4" stop-opacity="0"/></linearGradient><linearGradient id="linear-gradient-3" x1="7.46" y1="1548.41" x2="802.2" y2="2849.25" gradientTransform="matrix(1, 0, 0, -1, 539.06, 2402.36)" gradientUnits="userSpaceOnUse"><stop offset="0.21" stop-color="#039bd2" stop-opacity="0.16"/><stop offset="1" stop-color="#c4c4c4" stop-opacity="0"/></linearGradient></defs><g class="cls-3"><g class="cls-4"><path class="cls-5" d="M-240.26-66.75q9.52,26.16,20,52-10.52-25.76-20.08-51.84l-357,631.67.81.46C-267.8,502.36,83.66,546.67,401.43,714q19.72,11.94,39.94,23.36C1166.18,1147,2083.77,898.41,2504,183.44l-2187.11-1236Z"/><path class="cls-6" d="M-221.07-35.19q8.7,23.86,18.26,47.43-9.6-23.5-18.33-47.32L-547.28,542l.74.42c300.3-57.7,621.4-17.21,911.73,135.67q18,10.9,36.49,21.34c662.2,374.23,1500.53,147.14,1884.43-506.08L287.92-935.85Z"/><path class="cls-7" d="M-213.55-109.83q5.93,15.6,12.2,31.09-6.3-15.44-12.24-31l-326,576.94,4.91,2.77c305.85-53.33,630.92-9.26,925.57,145.89q18.8,11.37,38,22.25c690.12,390,1563.79,153.34,1963.87-527.42L322.89-1059.06Z"/></g></g></svg>