<svg width="10" height="2" viewBox="0 0 10 2" fill="none" xmlns="http://www.w3.org/2000/svg">
<path fill-rule="evenodd" clip-rule="evenodd" d="M1.12682 0.865356L1.23288 0.971418L1.7629 1.50144L2.29297 0.971414L2.39903 0.865356L2.5051 0.971418L3.03377 1.5001L3.5625 0.971414L3.66857 0.865356L3.77463 0.971418L4.30465 1.50144L4.83472 0.971414L4.94078 0.865356L5.04684 0.971418L5.57552 1.5001L6.10425 0.971414L6.21031 0.865356L6.31638 0.971418L6.8464 1.50144L7.37647 0.971414L7.48253 0.865356L7.58859 0.971418L8.11727 1.5001L8.646 0.971414L8.75206 0.865356L8.85812 0.971418L9.59268 1.70598L9.38055 1.91811L8.75205 1.28961L8.1235 1.91811L8.11726 1.91187L8.11102 1.91811L7.48252 1.28961L6.85397 1.91811L6.84638 1.91053L6.8388 1.91811L6.21031 1.28961L5.58175 1.91811L5.57551 1.91187L5.56927 1.91811L4.94077 1.28961L4.31222 1.91811L4.30464 1.91053L4.29705 1.91811L3.66856 1.28961L3.04 1.91811L3.03376 1.91187L3.02752 1.91811L2.39903 1.28961L1.77047 1.91811L1.76289 1.91053L1.75531 1.91811L1.12681 1.28961L0.498256 1.91811L0.286133 1.70597L1.02075 0.971414L1.12682 0.865356Z" fill="#D60399"/>
</svg>
